<svg xmlns="http://www.w3.org/2000/svg" width="480" height="280" viewBox="0 0 480 280" role="img" aria-label="GitHub activity for @Deepak17kb: 160 contributions since November 2024; 135 commits and 28 active days in the past year; longest streak 6 days; 12 public repositories; 9 languages; 4 stars."><title>GitHub activity for @Deepak17kb: 160 contributions since November 2024; 135 commits and 28 active days in the past year; longest streak 6 days; 12 public repositories; 9 languages; 4 stars.</title><style>text{font-kerning:normal}@media (prefers-reduced-motion:reduce){*{animation:none!important}}.rise{animation:rise .9s cubic-bezier(.2,.7,.2,1) both}@keyframes rise{from{opacity:0;transform:translateY(8px)}to{opacity:1;transform:none}}.grow{transform-box:fill-box;transform-origin:50% 100%;animation:grow 1.1s cubic-bezier(.3,.7,.2,1) both}@keyframes grow{from{transform:scaleY(0)}}.growx{transform-box:fill-box;transform-origin:0 50%;animation:growx 1.3s cubic-bezier(.3,.7,.2,1) both}@keyframes growx{from{transform:scaleX(0)}}</style><defs><clipPath id="act-clip"><rect width="480" height="280" rx="18"/></clipPath><linearGradient id="act-edge"><stop offset="0" stop-color="#fff" stop-opacity="0"/><stop offset=".5" stop-color="#fff" stop-opacity=".14"/><stop offset="1" stop-color="#fff" stop-opacity="0"/></linearGradient><linearGradient id="spark" x1="0" y1="1" x2="0" y2="0"><stop offset="0" stop-color="#D4B483" stop-opacity=".45"/><stop offset="1" stop-color="#D4B483"/></linearGradient></defs><rect width="480" height="280" rx="18" fill="#111113"/><g clip-path="url(#act-clip)"><text x="24" y="36" font-family="'JetBrains Mono','Cascadia Code','Fira Code',Consolas,'SF Mono',Menlo,monospace" font-size="11" fill="#D4B483" textLength="132" lengthAdjust="spacing" xml:space="preserve">GITHUB · @DEEPAK17KB</text><text x="456" y="36" font-family="'JetBrains Mono','Cascadia Code','Fira Code',Consolas,'SF Mono',Menlo,monospace" font-size="10" fill="#71717A" textLength="114" lengthAdjust="spacing" xml:space="preserve" text-anchor="end">updated 10 Oct 2026</text><clipPath id="odo-0"><rect x="24" y="52" width="27.6" height="55.2"/></clipPath><g clip-path="url(#odo-0)"><g transform="translate(0 -632.5)" font-family="'Segoe UI',-apple-system,BlinkMacSystemFont,Inter,'Helvetica Neue',Arial,sans-serif" font-size="46" font-weight="600" fill="#EDEDEF"><text x="37.8" y="98" text-anchor="middle">0</text><text x="37.8" y="155.5" text-anchor="middle">1</text><text x="37.8" y="213" text-anchor="middle">2</text><text x="37.8" y="270.5" text-anchor="middle">3</text><text x="37.8" y="328" text-anchor="middle">4</text><text x="37.8" y="385.5" text-anchor="middle">5</text><text x="37.8" y="443" text-anchor="middle">6</text><text x="37.8" y="500.5" text-anchor="middle">7</text><text x="37.8" y="558" text-anchor="middle">8</text><text x="37.8" y="615.5" text-anchor="middle">9</text><text x="37.8" y="673" text-anchor="middle">0</text><text x="37.8" y="730.5" text-anchor="middle">1</text><text x="37.8" y="788" text-anchor="middle">2</text><text x="37.8" y="845.5" text-anchor="middle">3</text><text x="37.8" y="903" text-anchor="middle">4</text><text x="37.8" y="960.5" text-anchor="middle">5</text><text x="37.8" y="1018" text-anchor="middle">6</text><text x="37.8" y="1075.5" text-anchor="middle">7</text><text x="37.8" y="1133" text-anchor="middle">8</text><text x="37.8" y="1190.5" text-anchor="middle">9</text><animateTransform attributeName="transform" type="translate" dur="1.85s" values="0 0;0 0;0 -632.5" keyTimes="0;0.1351;1" calcMode="spline" keySplines="0 0 1 1;.2 .75 .15 1" fill="freeze"/></g></g><clipPath id="odo-1"><rect x="51.6" y="52" width="27.6" height="55.2"/></clipPath><g clip-path="url(#odo-1)"><g transform="translate(0 -920)" font-family="'Segoe UI',-apple-system,BlinkMacSystemFont,Inter,'Helvetica Neue',Arial,sans-serif" font-size="46" font-weight="600" fill="#EDEDEF"><text x="65.4" y="98" text-anchor="middle">0</text><text x="65.4" y="155.5" text-anchor="middle">1</text><text x="65.4" y="213" text-anchor="middle">2</text><text x="65.4" y="270.5" text-anchor="middle">3</text><text x="65.4" y="328" text-anchor="middle">4</text><text x="65.4" y="385.5" text-anchor="middle">5</text><text x="65.4" y="443" text-anchor="middle">6</text><text x="65.4" y="500.5" text-anchor="middle">7</text><text x="65.4" y="558" text-anchor="middle">8</text><text x="65.4" y="615.5" text-anchor="middle">9</text><text x="65.4" y="673" text-anchor="middle">0</text><text x="65.4" y="730.5" text-anchor="middle">1</text><text x="65.4" y="788" text-anchor="middle">2</text><text x="65.4" y="845.5" text-anchor="middle">3</text><text x="65.4" y="903" text-anchor="middle">4</text><text x="65.4" y="960.5" text-anchor="middle">5</text><text x="65.4" y="1018" text-anchor="middle">6</text><text x="65.4" y="1075.5" text-anchor="middle">7</text><text x="65.4" y="1133" text-anchor="middle">8</text><text x="65.4" y="1190.5" text-anchor="middle">9</text><animateTransform attributeName="transform" type="translate" dur="1.97s" values="0 0;0 0;0 -920" keyTimes="0;0.1878;1" calcMode="spline" keySplines="0 0 1 1;.2 .75 .15 1" fill="freeze"/></g></g><clipPath id="odo-2"><rect x="79.2" y="52" width="27.6" height="55.2"/></clipPath><g clip-path="url(#odo-2)"><g transform="translate(0 -575)" font-family="'Segoe UI',-apple-system,BlinkMacSystemFont,Inter,'Helvetica Neue',Arial,sans-serif" font-size="46" font-weight="600" fill="#EDEDEF"><text x="93" y="98" text-anchor="middle">0</text><text x="93" y="155.5" text-anchor="middle">1</text><text x="93" y="213" text-anchor="middle">2</text><text x="93" y="270.5" text-anchor="middle">3</text><text x="93" y="328" text-anchor="middle">4</text><text x="93" y="385.5" text-anchor="middle">5</text><text x="93" y="443" text-anchor="middle">6</text><text x="93" y="500.5" text-anchor="middle">7</text><text x="93" y="558" text-anchor="middle">8</text><text x="93" y="615.5" text-anchor="middle">9</text><text x="93" y="673" text-anchor="middle">0</text><text x="93" y="730.5" text-anchor="middle">1</text><text x="93" y="788" text-anchor="middle">2</text><text x="93" y="845.5" text-anchor="middle">3</text><text x="93" y="903" text-anchor="middle">4</text><text x="93" y="960.5" text-anchor="middle">5</text><text x="93" y="1018" text-anchor="middle">6</text><text x="93" y="1075.5" text-anchor="middle">7</text><text x="93" y="1133" text-anchor="middle">8</text><text x="93" y="1190.5" text-anchor="middle">9</text><animateTransform attributeName="transform" type="translate" dur="2.09s" values="0 0;0 0;0 -575" keyTimes="0;0.2344;1" calcMode="spline" keySplines="0 0 1 1;.2 .75 .15 1" fill="freeze"/></g></g><text x="24" y="122" font-family="'JetBrains Mono','Cascadia Code','Fira Code',Consolas,'SF Mono',Menlo,monospace" font-size="10.5" fill="#A1A1AA" textLength="176.4" lengthAdjust="spacing" xml:space="preserve">contributions since Nov 2024</text><rect x="252" y="100.35" width="4.86" height="11.65" rx="1.5" fill="url(#spark)" class="grow" style="animation-delay:0.3s"/><rect x="259.85" y="95.06" width="4.86" height="16.94" rx="1.5" fill="url(#spark)" class="grow" style="animation-delay:0.33s"/><rect x="267.69" y="105.65" width="4.86" height="6.35" rx="1.5" fill="url(#spark)" class="grow" style="animation-delay:0.36s"/><rect x="275.54" y="106.71" width="4.86" height="5.29" rx="1.5" fill="url(#spark)" class="grow" style="animation-delay:0.39s"/><rect x="283.38" y="110" width="4.86" height="2" rx="1.5" fill="#27272A" class="grow" style="animation-delay:0.42s"/><rect x="291.23" y="110" width="4.86" height="2" rx="1.5" fill="#27272A" class="grow" style="animation-delay:0.45s"/><rect x="299.08" y="110" width="4.86" height="2" rx="1.5" fill="#27272A" class="grow" style="animation-delay:0.48s"/><rect x="306.92" y="110" width="4.86" height="2" rx="1.5" fill="#27272A" class="grow" style="animation-delay:0.51s"/><rect x="314.77" y="110" width="4.86" height="2" rx="1.5" fill="#27272A" class="grow" style="animation-delay:0.54s"/><rect x="322.62" y="110" width="4.86" height="2" rx="1.5" fill="#27272A" class="grow" style="animation-delay:0.57s"/><rect x="330.46" y="110" width="4.86" height="2" rx="1.5" fill="#27272A" class="grow" style="animation-delay:0.6s"/><rect x="338.31" y="110" width="4.86" height="2" rx="1.5" fill="#27272A" class="grow" style="animation-delay:0.63s"/><rect x="346.15" y="110" width="4.86" height="2" rx="1.5" fill="#27272A" class="grow" style="animation-delay:0.66s"/><rect x="354" y="110" width="4.86" height="2" rx="1.5" fill="#27272A" class="grow" style="animation-delay:0.69s"/><rect x="361.85" y="110" width="4.86" height="2" rx="1.5" fill="#27272A" class="grow" style="animation-delay:0.72s"/><rect x="369.69" y="110" width="4.86" height="2" rx="1.5" fill="#27272A" class="grow" style="animation-delay:0.75s"/><rect x="377.54" y="110" width="4.86" height="2" rx="1.5" fill="#27272A" class="grow" style="animation-delay:0.78s"/><rect x="385.38" y="110" width="4.86" height="2" rx="1.5" fill="#27272A" class="grow" style="animation-delay:0.81s"/><rect x="393.23" y="107.76" width="4.86" height="4.24" rx="1.5" fill="url(#spark)" class="grow" style="animation-delay:0.84s"/><rect x="401.08" y="110" width="4.86" height="2" rx="1.5" fill="#27272A" class="grow" style="animation-delay:0.87s"/><rect x="408.92" y="110" width="4.86" height="2" rx="1.5" fill="#27272A" class="grow" style="animation-delay:0.9s"/><rect x="416.77" y="107.76" width="4.86" height="4.24" rx="1.5" fill="url(#spark)" class="grow" style="animation-delay:0.93s"/><rect x="424.62" y="100.35" width="4.86" height="11.65" rx="1.5" fill="url(#spark)" class="grow" style="animation-delay:0.96s"/><rect x="432.46" y="90.82" width="4.86" height="21.18" rx="1.5" fill="url(#spark)" class="grow" style="animation-delay:0.99s"/><rect x="440.31" y="58" width="4.86" height="54" rx="1.5" fill="url(#spark)" class="grow" style="animation-delay:1.02s"/><rect x="448.15" y="110" width="4.86" height="2" rx="1.5" fill="#27272A" class="grow" style="animation-delay:1.05s"/><text x="456" y="126" font-family="'JetBrains Mono','Cascadia Code','Fira Code',Consolas,'SF Mono',Menlo,monospace" font-size="9" fill="#71717A" textLength="70.2" lengthAdjust="spacing" xml:space="preserve" text-anchor="end">last 26 weeks</text><path d="M24,146H456" stroke="#27272A"/><g class="rise" style="animation-delay:0.5s"><rect x="24" y="164" width="3" height="38" rx="1.5" fill="#D4B483"/><text x="38" y="186" font-family="'Segoe UI',-apple-system,BlinkMacSystemFont,Inter,'Helvetica Neue',Arial,sans-serif" font-size="24" font-weight="600" fill="#EDEDEF">135</text><text x="38" y="202" font-family="'JetBrains Mono','Cascadia Code','Fira Code',Consolas,'SF Mono',Menlo,monospace" font-size="9.5" fill="#71717A" textLength="85.5" lengthAdjust="spacing" xml:space="preserve">commits · 12 mo</text></g><g class="rise" style="animation-delay:0.6s"><rect x="172" y="164" width="3" height="38" rx="1.5" fill="#9CB89A"/><text x="186" y="186" font-family="'Segoe UI',-apple-system,BlinkMacSystemFont,Inter,'Helvetica Neue',Arial,sans-serif" font-size="24" font-weight="600" fill="#EDEDEF">28</text><text x="186" y="202" font-family="'JetBrains Mono','Cascadia Code','Fira Code',Consolas,'SF Mono',Menlo,monospace" font-size="9.5" fill="#71717A" textLength="108.3" lengthAdjust="spacing" xml:space="preserve">active days · 12 mo</text></g><g class="rise" style="animation-delay:0.7s"><rect x="320" y="164" width="3" height="38" rx="1.5" fill="#8EA4C2"/><text x="334" y="186" font-family="'Segoe UI',-apple-system,BlinkMacSystemFont,Inter,'Helvetica Neue',Arial,sans-serif" font-size="24" font-weight="600" fill="#EDEDEF">6</text><text x="334" y="202" font-family="'JetBrains Mono','Cascadia Code','Fira Code',Consolas,'SF Mono',Menlo,monospace" font-size="9.5" fill="#71717A" textLength="119.7" lengthAdjust="spacing" xml:space="preserve">longest streak · days</text></g><g class="rise" style="animation-delay:0.8s"><rect x="24" y="222" width="3" height="38" rx="1.5" fill="#CF8E7C"/><text x="38" y="244" font-family="'Segoe UI',-apple-system,BlinkMacSystemFont,Inter,'Helvetica Neue',Arial,sans-serif" font-size="24" font-weight="600" fill="#EDEDEF">12</text><text x="38" y="260" font-family="'JetBrains Mono','Cascadia Code','Fira Code',Consolas,'SF Mono',Menlo,monospace" font-size="9.5" fill="#71717A" textLength="119.7" lengthAdjust="spacing" xml:space="preserve">repositories · public</text></g><g class="rise" style="animation-delay:0.9s"><rect x="172" y="222" width="3" height="38" rx="1.5" fill="#A9A1C8"/><text x="186" y="244" font-family="'Segoe UI',-apple-system,BlinkMacSystemFont,Inter,'Helvetica Neue',Arial,sans-serif" font-size="24" font-weight="600" fill="#EDEDEF">9</text><text x="186" y="260" font-family="'JetBrains Mono','Cascadia Code','Fira Code',Consolas,'SF Mono',Menlo,monospace" font-size="9.5" fill="#71717A" textLength="102.6" lengthAdjust="spacing" xml:space="preserve">languages · in use</text></g><g class="rise" style="animation-delay:1s"><rect x="320" y="222" width="3" height="38" rx="1.5" fill="#C99BA8"/><text x="334" y="244" font-family="'Segoe UI',-apple-system,BlinkMacSystemFont,Inter,'Helvetica Neue',Arial,sans-serif" font-size="24" font-weight="600" fill="#EDEDEF">4</text><text x="334" y="260" font-family="'JetBrains Mono','Cascadia Code','Fira Code',Consolas,'SF Mono',Menlo,monospace" font-size="9.5" fill="#71717A" textLength="79.8" lengthAdjust="spacing" xml:space="preserve">stars · earned</text></g></g><rect x=".5" y=".5" width="479" height="279" rx="17.5" fill="none" stroke="#27272A"/><rect x="18" y=".5" width="444" height="1" fill="url(#act-edge)"/></svg>
