<svg xmlns="http://www.w3.org/2000/svg" width="1200" height="72" viewBox="0 0 1200 72" role="img" aria-label="05 · Connect"><title>05 · Connect</title><style>text{font-kerning:normal}.comet{fill:none;stroke-width:1.6;stroke-linecap:round;stroke-dasharray:90 910;animation:comet 10s linear infinite}.halo{stroke-width:7;opacity:.22}@keyframes comet{from{stroke-dashoffset:0}to{stroke-dashoffset:-1000}}@media (prefers-reduced-motion:reduce){*{animation:none!important}}.rise{animation:rise .9s cubic-bezier(.2,.7,.2,1) both}@keyframes rise{from{opacity:0;transform:translateY(10px)}to{opacity:1;transform:none}}.ping{transform-box:fill-box;transform-origin:center;animation:ping 2.2s ease-out infinite both}@keyframes ping{0%{transform:scale(1);opacity:.8}70%,100%{transform:scale(3.2);opacity:0}}.blink{animation:blink 1.05s steps(1) infinite}@keyframes blink{50%{opacity:0}}.scan{animation:scan 9s linear infinite}@keyframes scan{from{transform:translateY(0)}to{transform:translateY(900px)}}.run{fill:none;stroke-width:2;stroke-linecap:round;stroke-dasharray:22 78;animation:run 4s linear infinite}@keyframes run{to{stroke-dashoffset:-100}}.sheen{animation:sheen 8s ease-in-out infinite}@keyframes sheen{0%{transform:translateX(0)}55%,100%{transform:translateX(1700px)}}</style><defs><clipPath id="sec-clip"><rect width="1200" height="72" rx="18"/></clipPath><linearGradient id="run-grad" gradientUnits="userSpaceOnUse" x1="242.56" x2="1038.4" y1="0" y2="0"><stop offset="0" stop-color="#00FFF2"/><stop offset="1" stop-color="#B199FF"/></linearGradient><linearGradient id="sheen-grad"><stop offset="0" stop-color="#fff" stop-opacity="0"/><stop offset=".5" stop-color="#fff" stop-opacity=".06"/><stop offset="1" stop-color="#fff" stop-opacity="0"/></linearGradient></defs><rect width="1200" height="72" rx="18" fill="#0A0A13"/><g clip-path="url(#sec-clip)"><rect class="sheen" x="-360" y="0" width="300" height="72" fill="url(#sheen-grad)" transform="skewX(-20)"/><g class="rise"><text x="40" y="43" font-family="'JetBrains Mono','Cascadia Code','Fira Code',Consolas,'SF Mono',Menlo,monospace" font-size="15" fill="#00FFF2" textLength="18" lengthAdjust="spacing" xml:space="preserve" font-weight="700">05</text><text x="64" y="43" font-family="'JetBrains Mono','Cascadia Code','Fira Code',Consolas,'SF Mono',Menlo,monospace" font-size="15" fill="#6A6A80" textLength="9" lengthAdjust="spacing" xml:space="preserve">/</text><text x="86" y="44.5" font-family="'Segoe UI',-apple-system,BlinkMacSystemFont,Inter,'Helvetica Neue',Arial,sans-serif" font-size="22" font-weight="700" fill="#ECECF4" textLength="128.56" lengthAdjust="spacing">CONNECT</text></g><path d="M242.56,36.5H1038.4" stroke="#1E1E30" stroke-width="1.5"/><path d="M242.56,36.5H1038.4" pathLength="100" class="run" stroke="url(#run-grad)"/><circle cx="242.56" cy="36.5" r="3.5" fill="#00FFF2"/><circle cx="1038.4" cy="36.5" r="3.5" fill="#B199FF" opacity="0" class="ping"/><circle cx="1038.4" cy="36.5" r="3.5" fill="#B199FF"/><g class="rise" style="animation-delay:.2s"><text x="1160" y="42" font-family="'JetBrains Mono','Cascadia Code','Fira Code',Consolas,'SF Mono',Menlo,monospace" font-size="13" fill="#6A6A80" textLength="93.6" lengthAdjust="spacing" xml:space="preserve" text-anchor="end">// say hello</text></g></g><path d="M18.75,0.75H1181.25A18,18 0 0 1 1199.25,18.75V53.25A18,18 0 0 1 1181.25,71.25H18.75A18,18 0 0 1 0.75,53.25V18.75A18,18 0 0 1 18.75,0.75Z" fill="none" stroke="#1E1E30" stroke-width="1.5"/><path d="M18.75,0.75H1181.25A18,18 0 0 1 1199.25,18.75V53.25A18,18 0 0 1 1181.25,71.25H18.75A18,18 0 0 1 0.75,53.25V18.75A18,18 0 0 1 18.75,0.75Z" pathLength="1000" class="comet halo" stroke="#00FFF2" style="animation-duration:12s;animation-delay:0s"/><path d="M18.75,0.75H1181.25A18,18 0 0 1 1199.25,18.75V53.25A18,18 0 0 1 1181.25,71.25H18.75A18,18 0 0 1 0.75,53.25V18.75A18,18 0 0 1 18.75,0.75Z" pathLength="1000" class="comet" stroke="#00FFF2" style="animation-duration:12s;animation-delay:0s"/><path d="M18.75,0.75H1181.25A18,18 0 0 1 1199.25,18.75V53.25A18,18 0 0 1 1181.25,71.25H18.75A18,18 0 0 1 0.75,53.25V18.75A18,18 0 0 1 18.75,0.75Z" pathLength="1000" class="comet halo" stroke="#B199FF" style="animation-duration:12s;animation-delay:-6s"/><path d="M18.75,0.75H1181.25A18,18 0 0 1 1199.25,18.75V53.25A18,18 0 0 1 1181.25,71.25H18.75A18,18 0 0 1 0.75,53.25V18.75A18,18 0 0 1 18.75,0.75Z" pathLength="1000" class="comet" stroke="#B199FF" style="animation-duration:12s;animation-delay:-6s"/></svg>
